<!--?xml version="1.0" standalone="no"?--><svg version="1.0" xmlns="http://www.w3.org/2000/svg" width="288.000000pt" height="300.000000pt" viewBox="0 0 288.000000 300.000000" preserveAspectRatio="xMidYMid meet">
<metadata>
  <rdf:rdf xmlns:rdf="http://www.w3.org/1999/02/22-rdf-syntax-ns#" xmlns:rdfs="http://www.w3.org/2000/01/rdf-schema#" xmlns:dc="http://purl.org/dc/elements/1.1/">
    <rdf:description dc:title="helping hands clip art" dc:publisher="Hiox" dc:date="2015-05-02" dc:format="image/svg+xml" dc:language="en">
      <dc:creator>
        <rdf:bag>
          <rdf:li>svgimages.com</rdf:li>
        </rdf:bag>
      </dc:creator>
    </rdf:description>
  </rdf:rdf>
</metadata>
<g transform="translate(0.000000,300.000000) scale(0.100000,-0.100000)" fill="#141414" stroke="none">
<path d="M811 2644 c-28 -23 -35 -25 -57 -15 -14 6 -29 11 -35 11 -54 0 -449
-507 -516 -664 -7 -15 -13 -58 -13 -95 0 -36 -7 -129 -15 -206 -8 -77 -15
-190 -15 -250 l0 -111 48 -94 c115 -227 290 -444 527 -656 153 -135 153 -131
4 16 -220 217 -374 421 -484 640 l-48 95 1 110 c1 61 9 195 18 298 8 104 13
195 10 204 -8 20 22 85 80 174 125 192 361 489 389 489 20 0 45 -29 45 -52 0
-18 -40 -118 -100 -253 -10 -22 -39 -89 -65 -150 -26 -60 -52 -123 -60 -140
-35 -83 -84 -266 -85 -319 0 -70 32 -239 55 -290 12 -28 48 -80 80 -116 65
-74 110 -147 156 -252 17 -40 49 -103 70 -140 60 -103 79 -103 35 1 -130 302
-141 323 -224 416 -62 70 -90 130 -107 237 -29 179 -16 258 49 293 31 17 34
17 68 1 58 -28 106 -118 138 -256 7 -30 27 -80 45 -110 40 -65 222 -246 317
-313 91 -64 174 -165 241 -292 33 -63 67 -141 67 -154 0 -28 17 -5 39 52 58
153 172 308 289 394 43 31 131 111 198 177 130 131 126 123 188 323 31 100 66
156 111 178 31 14 38 14 70 1 65 -28 80 -111 50 -294 -17 -107 -45 -167 -107
-237 -69 -78 -102 -131 -152 -250 -26 -60 -54 -126 -63 -145 -8 -19 -22 -53
-29 -75 l-14 -40 30 35 c26 32 130 225 130 244 0 20 84 148 135 206 32 36 68
88 81 115 28 61 57 235 52 308 -9 109 -66 272 -208 592 -63 141 -100 235 -100
253 0 24 25 52 45 52 13 0 60 -52 163 -176 71 -86 244 -334 277 -398 21 -40
33 -76 30 -86 -3 -10 1 -101 9 -202 9 -100 17 -233 18 -294 l3 -110 -51 -105
c-105 -214 -258 -416 -483 -639 -139 -137 -125 -134 31 7 213 192 386 412 499
631 l49 94 0 117 c0 64 -7 175 -15 246 -8 72 -15 162 -15 201 0 79 -7 99 -64
194 -121 199 -424 570 -465 570 -6 0 -22 -5 -36 -12 -22 -10 -29 -8 -54 16
-27 26 -32 27 -64 17 -60 -20 -71 -40 -64 -124 6 -80 22 -147 70 -282 40 -114
45 -90 13 56 -33 149 -48 247 -41 268 6 21 49 43 68 35 17 -6 31 -34 46 -90 6
-22 55 -132 110 -245 119 -246 197 -439 177 -439 -3 0 -20 9 -38 20 -112 68
-217 -37 -274 -273 -8 -32 -23 -76 -35 -99 -23 -45 -210 -231 -299 -297 -92
-69 -152 -146 -288 -370 -14 -23 -15 -22 -54 50 -57 107 -168 248 -234 300
-69 53 -202 174 -262 238 -46 48 -84 121 -97 181 -17 87 -68 198 -110 243 -48
51 -97 59 -160 27 -22 -11 -41 -20 -42 -20 -17 0 64 203 163 408 102 209 146
311 139 322 -3 4 3 18 13 30 22 27 68 19 84 -15 10 -22 -8 -142 -50 -338 -11
-49 -16 -85 -12 -80 17 18 61 143 85 246 33 134 31 202 -5 228 -44 31 -65 32
-99 3z" id="node1" class="node"></path>
<path d="M1032 2009 c-99 -49 -152 -131 -160 -245 -6 -101 17 -169 77 -231 46
-47 475 -416 489 -420 4 -2 117 92 252 208 186 160 253 224 280 266 34 54 35
60 35 152 0 82 -4 103 -24 141 -32 60 -83 107 -148 137 -49 22 -65 25 -142 21
-101 -5 -151 -28 -215 -98 l-37 -41 -40 44 c-60 69 -125 97 -224 97 -71 0 -90
-4 -143 -31z" id="node2" class="node"></path>
</g>
<g transform="translate(0.000000,300.000000) scale(0.100000,-0.100000)" fill="#A2A2A2" stroke="none">

</g>
</svg>